<?xml version="1.0" encoding="UTF-8" standalone="no"?>
<svg
   xmlns:dc="http://purl.org/dc/elements/1.1/"
   xmlns:cc="http://creativecommons.org/ns#"
   xmlns:rdf="http://www.w3.org/1999/02/22-rdf-syntax-ns#"
   xmlns:svg="http://www.w3.org/2000/svg"
   xmlns="http://www.w3.org/2000/svg"
   viewBox="0 0 1133.8583 850.39368"
   id="svg25"
   height="850.39368"
   width="1133.8583"
   version="1.1">
  <metadata
     id="metadata31">
    <rdf:RDF>
      <cc:Work
         rdf:about="">
        <dc:format>image/svg+xml</dc:format>
        <dc:type
           rdf:resource="http://purl.org/dc/dcmitype/StillImage" />
      </cc:Work>
    </rdf:RDF>
  </metadata>
  <defs
     id="defs29" />
  <g
     id="Layer1000">
    <path
       id="path2"
       style="fill:none"
       d="M 0,0 V 850.3937 H 1133.8583 V 0 Z" />
    <g
       id="Layer1001">
      <path
         id="path4"
         style="fill:#108de8;fill-rule:evenodd"
         d="m 195.7907,278.7615 c -48.6068,4.597 -87.9985,30.3338 -111.9232,70.0593 -15.5459,25.813 -22.8527,56.3958 -20.5988,87.7775 5.5145,76.781 71.4954,141.7856 155.9512,135.0921 75.7738,-6.0054 138.2969,-74.1709 131.8911,-158.0102 -2.3454,-30.696 -13.0152,-55.9939 -30.1158,-78.8365 -7.7439,-10.3443 -9.2714,-10.5113 -17.3562,-18.9796 -10.027,-10.5025 -31.2312,-22.5592 -44.7644,-27.8957 -18.1457,-7.1553 -41.2492,-11.2719 -63.0839,-9.2069 z" />
      <path
         id="path6"
         style="fill:#ffffff;fill-rule:evenodd"
         d="m 123.6192,382.367 c -1.8427,5.3216 -0.7449,64.4836 -0.745,75.4577 -2e-4,11.8703 -2.3437,15.5789 16.2302,21.931 49.1753,16.8176 97.8688,-40.205 146.7667,-11.9939 2.2668,1.3079 5.0271,3.9899 5.6747,-0.3432 l 0.0201,-76.1052 c 0.002,-8.1863 0.7351,-10.7502 -4.6954,-14.533 -43.7565,-30.4808 -91.1345,21.6575 -135.5334,15.8101 -16.432,-2.1642 -23.2348,-10.5484 -27.7179,-10.2235 z" />
      <g
         id="Layer1002">
        <path
           id="path8"
           style="fill:#108de8;fill-rule:evenodd"
           d="m 461.4588,499.6919 c 19.1668,1.3675 41.4972,-13.4973 49.3652,-22.0122 27.3279,-29.5752 27.9883,-72.3705 0.4772,-103.3394 -10.2448,-11.5324 -34.2301,-24.2777 -49.5278,-22.4924 l -55.2483,0.0418 -0.0135,147.6155 z m -23.9103,-31.9857 c 4.0679,0.7062 20.7816,0.4429 25.3735,0.0226 37.7418,-3.4523 51.0735,-55.0548 19.344,-76.6719 -5.2674,-3.5887 -11.1272,-6.4492 -18.8155,-7.3058 -4.2124,-0.4697 -22.196,-0.7626 -25.9226,-0.0901 z" />
        <path
           id="path10"
           style="fill:#108de8;fill-rule:evenodd"
           d="m 945.3564,499.9657 31.4265,-0.0126 0.0307,-31.8161 62.3573,0.009 0.1842,31.8105 31.4099,0.006 c 0.021,-17.6815 0.01,-35.2196 0.01,-52.7567 0,-15.797 1.3283,-35.5719 -2.5675,-49.9028 -6.5922,-24.251 -29.6558,-45.7623 -60.0093,-45.8816 -30.6795,-0.1203 -52.9479,21.3286 -60.057,45.2293 -4.2073,14.1461 -2.8046,34.4254 -2.8046,49.9964 0,17.7455 -0.1807,35.586 0.0222,53.3194 z m 31.4542,-63.839 62.5163,0.0262 c 0.1515,-13.6474 1.6167,-26.9106 -4.5068,-37.3663 -4.3815,-7.48 -13.6252,-15.3073 -26.6076,-15.3612 -13.2447,-0.0554 -22.0772,7.4599 -26.8004,15.2097 -6.1925,10.1617 -4.7938,24.1548 -4.6015,37.4916 z" />
        <path
           id="path12"
           style="fill:#108de8;fill-rule:evenodd"
           d="m 585.9075,499.932 31.3184,0.0251 c 0.0196,-6.6389 -0.8411,-26.9966 0.3055,-31.8206 l 62.1192,0.008 0.2179,31.7929 31.3621,0.0282 c -0.1651,-17.6287 -0.0141,-35.2282 -0.0141,-52.7607 0,-15.0385 1.3917,-36.5871 -2.5494,-49.9214 -17.9462,-60.7234 -101.4983,-61.1547 -120.0411,-0.6075 -4.1998,13.7127 -2.7643,34.6976 -2.7643,49.9702 0,17.6226 -0.4031,35.7219 0.0458,53.2857 z m 31.339,-63.8093 62.5938,0.0342 c 0.1294,-13.4495 1.5986,-26.962 -4.5395,-37.3965 -11.2359,-19.0999 -39.809,-21.8476 -53.401,-0.0936 -6.2141,9.9458 -4.8572,24.3617 -4.6533,37.4559 z" />
        <path
           id="path14"
           style="fill:#108de8;fill-rule:evenodd"
           d="m 766.3546,409.5051 -0.4269,22.0504 c 0,18.49 -0.9201,52.9783 0.0643,67.9771 l 30.7126,0.0173 c 0.7147,-10.5138 -1.1089,-85.5442 0.8356,-87.9342 0.009,-14.5785 15.2085,-28.1351 30.584,-28.1929 9.4437,-0.0356 16.3306,3.8062 21.3427,8.3689 3.9147,3.5637 9.9014,11.6785 9.7861,19.9004 1.4357,0.8091 0.3014,79.0715 0.753,87.8356 l 30.746,0.0221 -0.2457,-89.5965 c 0.7666,-7.019 -3.4589,-17.8699 -6.1695,-23.3794 -22.76,-46.2616 -88.0869,-46.8737 -111.4934,-0.7959 -2.7442,5.4024 -7.137,16.5467 -6.4888,23.7271 z" />
        <path
           id="path16"
           style="fill:#79bbe7;fill-rule:evenodd"
           d="m 461.4587,499.6917 -54.9469,-0.1866 0.0133,-147.6155 55.2483,-0.0417 c -1.0041,-1.4061 -24.055,-0.5665 -27.2846,-0.5665 -8.0388,0 -20.7266,-0.7551 -28.198,0.1193 -0.7038,2.3533 -0.9931,144.7855 -0.0488,148.6214 5.0876,0.6581 40.5392,0.1514 51.747,0.1771 l 3.0828,-0.3218 c 0.0966,-0.0284 0.2583,-0.123 0.3869,-0.1857 z" />
        <path
           id="path18"
           style="fill:#79bbe7;fill-rule:evenodd"
           d="m 859.253,411.6921 c 0.3287,12.0779 -0.655,84.0345 0.4733,88.3481 l 31.3045,0.1343 c 0.8165,-3.4583 0.3148,-59.5671 0.3148,-68.0601 0,-4.0612 1.0888,-20.0142 -0.8393,-22.1611 l 0.2457,89.5965 -30.746,-0.0221 c -0.4516,-8.7641 0.6827,-87.0265 -0.753,-87.8356 z" />
        <path
           id="path20"
           style="fill:#79bbe7;fill-rule:evenodd"
           d="m 797.5402,411.6157 c -1.9445,2.39 -0.1209,77.4204 -0.8356,87.9342 l -30.7126,-0.0173 c -0.9844,-14.9988 -0.0643,-49.4871 -0.0643,-67.9771 l 0.4269,-22.0504 c -1.7472,0.7599 -0.9657,40.0595 -0.9657,44.9661 0,7.1406 -0.8484,41.4916 0.3718,45.5861 l 31.2909,0.1134 z" />
      </g>
    </g>
  </g>
</svg>
