<?xml version="1.0" encoding="UTF-8" standalone="no"?>
<svg
   xmlns:dc="http://purl.org/dc/elements/1.1/"
   xmlns:cc="http://creativecommons.org/ns#"
   xmlns:rdf="http://www.w3.org/1999/02/22-rdf-syntax-ns#"
   xmlns:svg="http://www.w3.org/2000/svg"
   xmlns="http://www.w3.org/2000/svg"
   viewBox="0 0 1133.8583 850.39368"
   id="svg12"
   height="850.39368"
   width="1133.8583"
   version="1.1">
  <metadata
     id="metadata18">
    <rdf:RDF>
      <cc:Work
         rdf:about="">
        <dc:format>image/svg+xml</dc:format>
        <dc:type
           rdf:resource="http://purl.org/dc/dcmitype/StillImage" />
      </cc:Work>
    </rdf:RDF>
  </metadata>
  <defs
     id="defs16" />
  <g
     id="Layer1000">
    <path
       id="path2"
       style="fill:none"
       d="M 0,0 V 850.3937 H 1133.8583 V 0 Z" />
    <g
       id="Layer1001">
      <path
         id="path4"
         style="fill:#2bb34d;fill-rule:evenodd"
         d="m 566.9286,213.883 c 48.5016,0 87.8203,39.3188 87.8203,87.8204 0,48.5016 -39.3187,87.8203 -87.8203,87.8203 -48.5016,0 -87.8203,-39.3187 -87.8203,-87.8203 0,-48.5016 39.3187,-87.8204 87.8203,-87.8204 z" />
      <path
         id="path6"
         style="fill:#2bb34d;fill-rule:evenodd"
         d="m 566.9286,71.7581 c 127.7604,0 231.3307,103.5703 231.3307,231.3306 0,92.0326 -53.7466,171.5074 -131.5618,208.7627 0.6745,-0.59 1.3297,-1.2017 1.9657,-1.8321 -5.8495,3.4578 -12.6412,5.4382 -19.8868,5.4382 -21.9537,0 -39.7498,-18.1716 -39.7498,-40.5887 0,-17.196 10.4717,-31.8925 25.2588,-37.8064 48.9767,-24.6697 82.5799,-75.3926 82.5799,-133.9737 0,-82.8076 -67.129,-149.9367 -149.9367,-149.9367 -82.8076,0 -149.9366,67.1291 -149.9366,149.9367 0,58.9824 34.0626,110.0002 83.5848,134.4812 -0.461,-0.0587 -0.9199,-0.1067 -1.3788,-0.1502 14.3307,6.1324 24.3975,20.589 24.3975,37.4491 0,22.4171 -17.7961,40.5887 -39.7498,40.5887 -6.0909,0 -11.861,-1.4011 -17.0209,-3.9011 l 0.3304,0.293 C 389.3425,474.593 335.598,395.1198 335.598,303.0887 335.598,175.3284 439.1683,71.7581 566.9286,71.7581 Z" />
      <path
         id="path8"
         style="fill:#1b1918;fill-rule:evenodd"
         d="m 550.4137,746.6532 -1.6319,0.196 -26.4871,-0.1615 v 31.9478 l 28.0447,-0.0683 0.1141,-0.0173 v -0.0276 l 7.9581,-0.6561 c 11.9138,-0.9819 21.4212,-5.9947 27.9734,-14.3345 6.1873,-7.8748 9.5396,-18.6041 9.5396,-31.5248 V 594.293 587.3931 h -7.5062 -22.5554 -7.5062 v 6.8999 137.7139 c 0,4.0171 -0.5135,7.0923 -1.4743,9.3113 -0.7228,1.6684 -1.6926,2.7896 -2.8688,3.4168 l -3.6,1.9189 z m -201.457,13.6549 c -12.2044,11.2185 -30.1893,17.763 -54.8787,17.763 -10.7879,0 -21.1758,-1.2323 -31.0464,-3.6611 -9.9195,-2.4398 -19.2782,-6.0871 -27.9607,-10.9032 l -4.8648,-2.6985 1.5223,-5.0369 5.5696,-18.4296 2.5807,-8.5399 8.3559,4.389 c 7.3756,3.8742 14.231,6.9447 21.4084,9.0064 7.0671,2.0292 14.6319,3.1318 23.5996,3.1318 12.6607,0 21.9857,-3.0628 28.1468,-8.1356 6.5334,-5.3792 9.737,-13.2892 9.737,-22.337 v -3.305 c -3.022,2.1465 -6.2827,4.0406 -9.7716,5.6531 -8.8085,4.073 -18.9884,6.3437 -30.3401,6.3437 -20.8672,0 -39.4136,-7.1007 -52.6583,-19.5342 -12.8094,-12.023 -20.5663,-28.9139 -20.5663,-49.0553 0,-19.7302 7.555,-37.0475 20.483,-49.4425 12.8281,-12.2976 30.8325,-19.6591 51.9062,-19.6591 10.7181,0 21.0264,2.2377 30.2162,6.3872 3.6886,1.6657 7.188,3.6377 10.4524,5.8939 v -3.8453 -6.8999 h 7.5063 22.5561 7.5062 v 6.8999 115.4445 c 0,20.5761 -6.0357,38.2308 -19.4598,50.5706 z m -82.7748,-79.7708 c 6.8179,6.4203 16.564,10.0131 27.6176,10.0131 11.3239,0 20.6894,-3.7529 27.2206,-10.0145 6.7856,-6.5052 10.6633,-15.8304 10.6633,-26.6011 0,-10.4498 -3.9715,-19.1451 -10.5095,-25.2294 -6.7195,-6.2519 -16.2667,-9.8502 -27.0959,-9.8502 -11.5363,0 -21.0789,3.6707 -27.7182,9.8109 -6.8186,6.3058 -10.7226,15.3343 -10.7226,25.7807 0,10.997 3.9843,19.913 10.5447,26.0905 z m 252.2403,26.8688 c -13.8865,12.6626 -33.3441,19.982 -55.5925,19.982 -22.7551,0 -41.8914,-7.5092 -55.5137,-19.882 -14.0854,-12.7944 -22.1666,-30.681 -22.1666,-50.7555 0,-20.0841 8.0842,-38.0438 22.1748,-50.8934 13.6313,-12.4308 32.7632,-20 55.5055,-20 22.2364,0 41.6782,7.3732 55.555,20.078 13.68,12.5253 21.8468,30.1165 21.8468,50.8154 0,20.6879 -8.151,38.2005 -21.8093,50.6555 z m -83.8054,-23.2643 c 6.8374,6.5079 16.5587,10.5043 28.2129,10.5043 11.1024,0 21.0714,-3.9253 28.1535,-10.7072 6.8877,-6.5949 11.1228,-15.978 11.1228,-27.1883 0,-11.2785 -4.2238,-20.7679 -11.1513,-27.4387 -7.0318,-6.7715 -16.9528,-10.7127 -28.125,-10.7127 -11.721,0 -21.4145,4.0185 -28.2226,10.5354 -7.2195,6.9109 -11.3321,16.7094 -11.3321,27.616 0,10.8432 4.1434,20.5396 11.3418,27.3912 z m 302.7001,-78.8104 c 12.392,12.2563 19.5619,29.4176 19.5619,49.1154 0,2.2666 -0.2139,4.5097 -0.3865,6.323 -0.0924,0.9715 -0.1704,1.7871 -0.1704,2.1245 v 6.8999 h -7.5062 -96.641 c 2.1452,6.5797 5.8383,12.0837 10.7886,16.1981 6.6385,5.5171 15.7196,8.6538 26.539,8.6538 7.3471,0 13.6163,-1.3317 18.9014,-3.5714 5.9765,-2.5322 10.7969,-6.2423 14.5576,-10.5064 l 4.7859,-5.4274 5.8278,4.5111 15.8727,12.2866 5.5238,4.2759 -4.4091,5.2114 c -6.5109,7.6955 -14.5328,14.1972 -24.7781,18.798 -10.1071,4.5395 -22.2634,7.1642 -37.1174,7.1642 -22.2184,0 -41.2827,-7.2269 -54.8247,-19.8268 -13.3603,-12.4301 -21.1847,-29.9655 -21.1847,-50.8107 0,-20.5823 7.7644,-38.1928 20.8777,-50.7492 13.2815,-12.7178 31.9292,-20.1442 53.4608,-20.1442 20.5633,0 37.9679,7.2566 50.3209,19.4742 z m -28.9537,20.5292 c -5.397,-4.6167 -12.7133,-7.2614 -21.6457,-7.2614 -9.1411,0 -17.2718,2.7227 -23.4772,7.6533 -4.1667,3.3113 -7.5257,7.6444 -9.8068,12.8476 h 63.9071 c -1.9831,-5.3502 -5.0141,-9.8496 -8.9774,-13.2395 z m 66.6416,93.0917 v -188.3962 -6.8998 h 7.5062 22.5555 7.4619 l 0.015,6.8998 0.241,114.1398 53.5433,-54.9851 2.2563,-2.3177 h 3.3148 27.2903 16.8785 l -11.3366,11.509 -46.8276,47.5395 48.1464,68.791 7.4319,10.6196 h -13.7356 -25.898 -4.0833 l -2.2204,-3.1802 -35.7198,-51.1501 -19.2519,19.1119 v 28.3185 6.8999 h -7.5062 -22.5555 -7.5062 z" />
    </g>
  </g>
</svg>
